{
    "asset" : {
        "generator" : "Khronos glTF Blender I/O v1.4.40",
        "version" : "2.0"
    },
    "scene" : 0,
    "scenes" : [
        {
            "name" : "Scene",
            "nodes" : [
                0
            ]
        }
    ],
    "nodes" : [
        {
            "mesh" : 0,
            "name" : "export",
            "rotation" : [
                0.7071068286895752,
                0,
                0,
                0.7071067094802856
            ],
            "scale" : [
                50,
                50,
                50
            ],
            "translation" : [
                0,
                -3.009999990463257,
                0
            ]
        }
    ],
    "materials" : [
        {
            "doubleSided" : true,
            "name" : "Default_OBJ",
            "pbrMetallicRoughness" : {
                "baseColorFactor" : [
                    0.800000011920929,
                    0.7623710036277771,
                    0.7157229781150818,
                    1
                ],
                "metallicFactor" : 0,
                "roughnessFactor" : 0.4000000059604645
            }
        }
    ],
    "meshes" : [
        {
            "name" : "export",
            "primitives" : [
                {
                    "attributes" : {
                        "POSITION" : 0,
                        "NORMAL" : 1
                    },
                    "indices" : 2,
                    "material" : 0
                }
            ]
        }
    ],
    "accessors" : [
        {
            "bufferView" : 0,
            "componentType" : 5126,
            "count" : 945364,
            "max" : [
                1.162500023841858,
                1.1970000267028809,
                0.04450000077486038
            ],
            "min" : [
                -1.1775000095367432,
                -1.2209999561309814,
                -2.243000030517578
            ],
            "type" : "VEC3"
        },
        {
            "bufferView" : 1,
            "componentType" : 5126,
            "count" : 945364,
            "type" : "VEC3"
        },
        {
            "bufferView" : 2,
            "componentType" : 5125,
            "count" : 1043388,
            "type" : "SCALAR"
        }
    ],
    "bufferViews" : [
        {
            "buffer" : 0,
            "byteLength" : 11344368,
            "byteOffset" : 0
        },
        {
            "buffer" : 0,
            "byteLength" : 11344368,
            "byteOffset" : 11344368
        },
        {
            "buffer" : 0,
            "byteLength" : 4173552,
            "byteOffset" : 22688736
        }
    ],
    "buffers" : [
        {
            "byteLength" : 26862288,
            "uri" : "desktop.bin"
        }
    ]
}
