<svg width="1400" height="456" viewBox="0 0 1400 456" fill="none" xmlns="http://www.w3.org/2000/svg">
<path d="M751.702 273H767.302V189.24H756.982V257.04H756.022L729.142 189.24H713.542V273H723.862V205.2H724.822L751.702 273ZM838.895 273V263.04H798.575V235.56H837.575V225.6H798.575V199.2H838.895V189.24H786.935V273H838.895ZM874.368 273L883.848 223.68H884.808L894.288 273H910.368L916.728 189.24H906.768L903.528 236.64L901.848 261.12H900.888L890.568 210.36H878.328L868.008 261.12H867.048L865.368 236.64L862.248 189.24H851.928L858.288 273H874.368ZM1061.23 273L1036.15 189.24H1020.43L995.354 273H1007.23L1013.95 249.84H1042.15L1048.87 273H1061.23ZM1039.63 240H1016.47L1027.51 201.24H1028.59L1039.63 240ZM1128.63 273V263.04H1089.63V189.24H1077.99V273H1128.63ZM1146.46 273H1178.5C1192.06 273 1201.54 262.68 1201.54 249.12C1201.54 237.48 1194.94 231.6 1185.34 229.32V228.96C1193.26 226.44 1198.54 220.8 1198.54 210.96C1198.54 197.76 1189.78 189.24 1175.02 189.24H1146.46V273ZM1157.98 263.52V234.48H1175.02C1184.14 234.48 1189.42 238.44 1189.42 246.6V251.28C1189.42 259.68 1184.14 263.52 1175.02 263.52H1157.98ZM1157.98 225.48V198.72H1173.22C1181.62 198.72 1186.54 202.32 1186.54 209.88V214.32C1186.54 222 1181.62 225.48 1173.22 225.48H1157.98ZM1217.09 189.24V237.6C1217.09 262.08 1221.05 274.44 1244.09 274.44C1267.13 274.44 1271.09 262.08 1271.09 237.6V189.24H1259.45V240C1259.45 255.24 1258.85 264.6 1244.09 264.6C1229.33 264.6 1228.73 255.24 1228.73 240V189.24H1217.09ZM1334.05 273H1344.61V189.24H1330.69L1316.77 224.52H1316.05L1302.13 189.24H1287.49V273H1298.05V231.84L1297.81 205.92H1298.77L1316.05 249L1333.33 205.92H1334.29L1334.05 231.84V273ZM884.328 394.44C905.088 394.44 914.328 378.48 914.328 351.12C914.328 323.76 905.088 307.8 884.328 307.8C863.568 307.8 854.328 323.76 854.328 351.12C854.328 378.48 863.568 394.44 884.328 394.44ZM884.328 384.6C871.608 384.6 866.688 374.16 866.688 358.08V344.16C866.688 328.08 871.608 317.64 884.328 317.64C897.048 317.64 901.968 328.08 901.968 344.16V358.08C901.968 374.16 897.048 384.6 884.328 384.6ZM929.281 309.24V357.6C929.281 382.08 933.241 394.44 956.281 394.44C979.321 394.44 983.281 382.08 983.281 357.6V309.24H971.641V360C971.641 375.24 971.041 384.6 956.281 384.6C941.521 384.6 940.921 375.24 940.921 360V309.24H929.281ZM1061.23 319.2V309.24H995.234V319.2H1022.47V393H1033.99V319.2H1061.23ZM1183.42 393H1199.02V309.24H1188.7V377.04H1187.74L1160.86 309.24H1145.26V393H1155.58V325.2H1156.54L1183.42 393ZM1244.09 394.44C1264.85 394.44 1274.09 378.48 1274.09 351.12C1274.09 323.76 1264.85 307.8 1244.09 307.8C1223.33 307.8 1214.09 323.76 1214.09 351.12C1214.09 378.48 1223.33 394.44 1244.09 394.44ZM1244.09 384.6C1231.37 384.6 1226.45 374.16 1226.45 358.08V344.16C1226.45 328.08 1231.37 317.64 1244.09 317.64C1256.81 317.64 1261.73 328.08 1261.73 344.16V358.08C1261.73 374.16 1256.81 384.6 1244.09 384.6ZM1306.09 393L1315.57 343.68H1316.53L1326.01 393H1342.09L1348.45 309.24H1338.49L1335.25 356.64L1333.57 381.12H1332.61L1322.29 330.36H1310.05L1299.73 381.12H1298.77L1297.09 356.64L1293.97 309.24H1283.65L1290.01 393H1306.09Z" fill="#303030"/>
</svg>
