<svg width="1400" height="456" viewBox="0 0 1400 456" fill="none" xmlns="http://www.w3.org/2000/svg">
<path d="M64.92 69.24V79.2H94.68V129.12C94.68 139.56 89.76 144.48 81.12 144.48C72.24 144.48 68.64 139.08 67.08 132.36L56.04 134.64C58.56 147 67.44 154.44 81 154.44C96 154.44 106.32 145.32 106.32 130.92V69.24H64.92ZM182.473 153V143.04H142.153V115.56H181.153V105.6H142.153V79.2H182.473V69.24H130.513V153H182.473ZM256.346 153V143.04H217.346V69.24H205.706V153H256.346ZM328.299 153V143.04H289.299V69.24H277.659V153H328.299ZM377.573 153V120.72L406.013 69.24H393.293L381.893 90.6L372.173 109.2H371.573L362.093 90.6L350.693 69.24H337.613L366.053 120.72V153H377.573ZM429.966 153V115.56H468.006V105.6H429.966V79.2H471.606V69.24H418.326V153H429.966ZM541.879 153V144H521.479V78.24H541.879V69.24H489.559V78.24H509.959V144H489.559V153H541.879ZM587.192 154.44C606.272 154.44 617.072 144.72 617.072 129.12C617.072 117.84 611.192 108.84 595.352 106.08L586.352 104.52C575.192 102.6 571.472 98.28 571.472 91.08C571.472 82.2 577.352 77.64 588.032 77.64C597.872 77.64 603.992 81.6 608.552 87.48L616.232 80.28C610.592 72.48 601.352 67.8 588.152 67.8C570.632 67.8 559.712 75.96 559.712 91.44C559.712 102.36 565.112 111.84 581.312 114.48L590.552 116.04C601.352 117.84 605.312 121.92 605.312 129.6C605.312 139.08 599.072 144.6 587.672 144.6C578.072 144.6 571.112 140.88 564.632 132.96L556.712 140.04C563.072 148.56 572.432 154.44 587.192 154.44ZM674.865 153H686.505V69.24H674.865V105.6H644.385V69.24H632.745V153H644.385V115.56H674.865V153Z" fill="white"/>
</svg>
